<?xml version="1.0" encoding="iso-8859-1"?>
<!-- Generator: Adobe Illustrator 19.0.0, SVG Export Plug-In . SVG Version: 6.00 Build 0)  -->
<svg xmlns="http://www.w3.org/2000/svg" xmlns:xlink="http://www.w3.org/1999/xlink" version="1.1" id="Layer_1" x="0px" y="0px" viewBox="0 0 512 512" style="enable-background:new 0 0 512 512;" xml:space="preserve" width="512px" height="512px">
<g>
	<g>
		<path d="M375.331,27.004H136.669C61.309,27.004,0,88.312,0,163.672v102.441c0,75.359,61.309,136.669,136.669,136.669h0.875    l-16.443,69.279c-1.051,4.428,0.867,9.028,4.752,11.398c1.689,1.03,3.583,1.537,5.469,1.537c2.45,0,4.886-0.855,6.84-2.528    l92.99-79.685h144.18c75.359,0,136.669-61.31,136.669-136.669V163.673C512,88.312,450.691,27.004,375.331,27.004z     M490.984,266.113c0,63.771-51.882,115.653-115.653,115.653H227.265c-2.508,0-4.932,0.897-6.837,2.528l-71.423,61.203    l12.057-50.797c0.742-3.127,0.014-6.421-1.981-8.943c-1.992-2.521-5.029-3.992-8.243-3.992h-14.169    c-63.77,0.002-115.652-51.88-115.652-115.652V163.672c0-63.77,51.882-115.652,115.653-115.652h238.663    c63.77,0,115.653,51.882,115.653,115.653V266.113z" fill="#f77957"/>
	</g>
</g>
<g>
	<g>
		<path d="M368.959,112.6c-5.802,0-10.508,4.705-10.508,10.508v47.01l-27.491-51.927c-2.259-4.268-7.14-6.444-11.819-5.281    c-4.685,1.163-7.976,5.37-7.976,10.198v89.317c0,5.802,4.705,10.508,10.508,10.508c5.802,0,10.508-4.704,10.508-10.507v-47.011    l27.491,51.927c1.853,3.498,5.462,5.592,9.285,5.592c0.841,0,1.691-0.102,2.534-0.311c4.685-1.163,7.975-5.37,7.975-10.198    v-89.317C379.467,117.306,374.762,112.6,368.959,112.6z" fill="#f77957"/>
	</g>
</g>
<g>
	<g>
		<path d="M268.204,239.613h-27.861c-15.495,0-28.101,12.606-28.101,28.101v54.13c0,15.495,12.606,28.101,28.101,28.101h27.861    c15.495,0,28.101-12.606,28.101-28.101v-54.13C296.306,252.22,283.699,239.613,268.204,239.613z M275.29,321.845L275.29,321.845    c0,3.907-3.179,7.085-7.086,7.085h-27.861c-3.907,0-7.085-3.179-7.085-7.085v-54.13c0-3.907,3.179-7.085,7.085-7.085h27.861    c3.907,0,7.086,3.179,7.086,7.085V321.845z" fill="#f77957"/>
	</g>
</g>
<g>
	<g>
		<path d="M390.877,239.613c-5.802,0-10.508,4.705-10.508,10.508v71.724c0,3.907-3.179,7.085-7.086,7.085h-27.861    c-3.907,0-7.086-3.179-7.086-7.085v-71.724c0-5.802-4.705-10.508-10.508-10.508c-5.802,0-10.508,4.705-10.508,10.508v71.724    c0,15.495,12.606,28.101,28.101,28.101h27.861c15.495,0,28.101-12.606,28.101-28.101v-71.724    C401.385,244.318,396.68,239.613,390.877,239.613z" fill="#f77957"/>
	</g>
</g>
<g>
	<g>
		<path d="M106.262,112.601H53.723c-5.802,0-10.508,4.705-10.508,10.508c0,5.802,4.705,10.508,10.508,10.508h15.762v78.809    c0,5.802,4.705,10.508,10.508,10.508c5.802,0,10.508-4.705,10.508-10.508v-78.809h15.762c5.802,0,10.508-4.705,10.508-10.508    C116.77,117.307,112.065,112.601,106.262,112.601z" fill="#f77957"/>
	</g>
</g>
<g>
	<g>
		<path d="M190.325,112.601c-5.802,0-10.508,4.705-10.508,10.508v34.151h-26.27v-34.151c0-5.802-4.705-10.508-10.508-10.508    c-5.802,0-10.508,4.705-10.508,10.508v89.317c0,5.802,4.705,10.508,10.508,10.508c5.802,0,10.508-4.705,10.508-10.508v-34.151    h26.27v34.151c0,5.802,4.705,10.508,10.508,10.508c5.802,0,10.508-4.705,10.508-10.508v-89.317    C200.833,117.306,196.128,112.601,190.325,112.601z" fill="#f77957"/>
	</g>
</g>
<g>
	<g>
		<path d="M258.183,112.601h-4.366c-17.627,0-31.968,14.34-31.968,31.967v67.858c0,5.802,4.705,10.508,10.508,10.508    c5.802,0,10.508-4.705,10.508-10.508v-34.151h26.27v34.151c0,5.802,4.705,10.508,10.508,10.508    c5.802,0,10.508-4.705,10.508-10.508v-67.858C290.15,126.943,275.81,112.601,258.183,112.601z M269.134,157.26h-26.27v-12.691    c0-6.04,4.914-10.951,10.952-10.951h4.366c6.039,0,10.951,4.912,10.951,10.951V157.26z" fill="#f77957"/>
	</g>
</g>
<g>
	<g>
		<path d="M426.01,170.664l39.482-37.288c4.22-3.986,4.409-10.635,0.424-14.855c-3.986-4.219-10.635-4.408-14.855-0.424    l-29.563,27.921v-20.28c0-5.802-4.705-10.508-10.508-10.508c-5.802,0-10.508,4.705-10.508,10.508v89.317    c0,5.802,4.705,10.508,10.508,10.508c5.802,0,10.508-4.705,10.508-10.508v-19.025l26.014,26.4    c2.056,2.087,4.771,3.132,7.485,3.132c2.664,0,5.329-1.007,7.375-3.023c4.135-4.074,4.182-10.727,0.109-14.86L426.01,170.664z" fill="#f77957"/>
	</g>
</g>
<g>
	<g>
		<path d="M186.779,241.536c-4.741-3.346-11.298-2.215-14.645,2.525l-22.939,32.497l-22.939-32.497    c-3.348-4.741-9.905-5.871-14.645-2.525c-4.742,3.348-5.872,9.904-2.525,14.645l29.601,41.934v41.323    c0,5.802,4.705,10.508,10.508,10.508c5.802,0,10.508-4.705,10.508-10.508v-41.323l29.601-41.934    C192.651,251.44,191.521,244.883,186.779,241.536z" fill="#f77957"/>
	</g>
</g>
<g>
</g>
<g>
</g>
<g>
</g>
<g>
</g>
<g>
</g>
<g>
</g>
<g>
</g>
<g>
</g>
<g>
</g>
<g>
</g>
<g>
</g>
<g>
</g>
<g>
</g>
<g>
</g>
<g>
</g>
</svg>
